<?xml version="1.0" encoding="utf-8"?>
<!-- Generator: Adobe Illustrator 21.0.2, SVG Export Plug-In . SVG Version: 6.00 Build 0)  -->
<svg version="1.1" id="Layer_1" xmlns="http://www.w3.org/2000/svg" xmlns:xlink="http://www.w3.org/1999/xlink" x="0px" y="0px"
	 viewBox="0 0 300 300" style="enable-background:new 0 0 300 300;" xml:space="preserve">
<style type="text/css">
	.st0{fill:#2D2A6D;}
	.st1{fill:#FF7A3D;}
	.st2{fill:#5973E1;}
	.st3{fill:#FB9C6F;}
</style>
<g>
	<g>
		<path class="st3" d="M136.6,163.7c-0.2,0-0.4,0-0.5-0.1l0.3-0.3C136.4,163.5,136.5,163.6,136.6,163.7z"/>
	</g>
	<g>
		<path class="st3" d="M136.6,163.7c-0.2,0-0.4,0-0.5-0.1l0.3-0.3C136.4,163.5,136.5,163.6,136.6,163.7z"/>
	</g>
	<g>
		<path class="st3" d="M136.6,163.7c-0.2,0-0.4,0-0.5-0.1l0.3-0.3C136.4,163.5,136.5,163.6,136.6,163.7z"/>
	</g>
	<g>
		<g>
			<path class="st3" d="M291.8,175.1c0-37.3-30.2-67.5-67.5-67.5c-22.4,0-42.2,10.9-54.4,27.6l-5-5c16.7-12.3,27.6-32.1,27.6-54.4
				c0-37.3-30.2-67.5-67.5-67.5c-37.3,0-67.5,30.2-67.5,67.5c0,14.5,4.6,28,12.5,39c-1.3-0.1-2.6-0.1-3.8-0.1
				c-31.9,0-57.8,25.9-57.8,57.8c0,31.9,25.9,57.8,57.8,57.8c1.4,0,2.7-0.1,4.1-0.2c-0.1,1.3-0.2,2.7-0.2,4.1
				c0,31.9,25.9,57.8,57.8,57.8c31.9,0,57.7-25.9,57.8-57.8c0-1.3,0-2.6-0.1-3.8c11,7.8,24.5,12.4,39,12.5
				C261.6,242.6,291.8,212.4,291.8,175.1z M114.9,142.5l0.3-0.3c0.1,0.1,0.2,0.2,0.2,0.4C115.3,142.6,115.1,142.5,114.9,142.5z"/>
		</g>
		<g>
			<circle class="st1" cx="122.1" cy="76.7" r="29.8"/>
		</g>
		<g>
			<circle class="st1" cx="60.4" cy="169.6" r="22"/>
		</g>
		<g>
			<circle class="st1" cx="221.7" cy="176.3" r="29.8"/>
		</g>
		<g>
			<circle class="st1" cx="130.8" cy="240" r="22"/>
		</g>
	</g>
	<path class="st0" d="M177,123L177,123c-7.8-7.8-7.8-20.7,0-28.5l0,0c7.8-7.8,20.7-7.8,28.5,0l0,0c7.8,7.8,7.8,20.7,0,28.5l0,0
		C197.7,130.9,184.8,130.9,177,123z"/>
	<polygon class="st0" points="186.8,112 206.8,41 223.6,45.7 211.8,87.6 253.9,76.9 258.2,93.8 	"/>
	
		<rect x="30.5" y="167.7" transform="matrix(0.7071 -0.7071 0.7071 0.7071 -88.5333 139.0642)" class="st0" width="186.1" height="17.4"/>
</g>
</svg>
