<?xml version="1.0" encoding="utf-8"?>
<!-- Generator: Adobe Illustrator 21.0.2, SVG Export Plug-In . SVG Version: 6.00 Build 0)  -->
<svg version="1.1" id="Layer_1" xmlns="http://www.w3.org/2000/svg" xmlns:xlink="http://www.w3.org/1999/xlink" x="0px" y="0px"
	 viewBox="0 0 300 300" style="enable-background:new 0 0 300 300;" xml:space="preserve">
<style type="text/css">
	.st0{fill:#2D2A6D;}
	.st1{fill:#FF7A3D;}
	.st2{fill:#5973E1;}
	.st3{fill:#FB9C6F;}
</style>
<g>
	<path class="st0" d="M190.4,109.6L190.4,109.6c-8.4-8.4-8.4-22.1,0-30.4l0,0c8.4-8.4,22.1-8.4,30.4,0l0,0c8.4,8.4,8.4,22.1,0,30.4
		l0,0C212.4,118,198.7,118,190.4,109.6z"/>
	<g>
		<g>
			<path class="st1" d="M150.2,150.2c-23.1-27.5-43.8-59.4-47.8-86.9C98,33.1,110.3,7.2,129.1,4.4c18.8-2.7,38,18.7,42.3,48.9
				C175.4,80.8,164.6,117.2,150.2,150.2z"/>
		</g>
		<g>
			<path class="st2" d="M56,176.6c-30.4-2.2-53.1-19.8-51.7-38.8c1.4-19,26.4-33.1,56.8-30.9c27.7,2,61,20.4,90.1,41.6
				C119.3,165.2,83.7,178.6,56,176.6z"/>
		</g>
		<g>
			<path class="st2" d="M246.7,128.6c30.2,4.4,51.6,23.5,48.9,42.3c-2.7,18.8-28.7,31.1-58.8,26.8c-27.5-4-59.4-24.7-86.9-47.8
				C182.8,135.4,219.2,124.6,246.7,128.6z"/>
		</g>
		<g>
			<path class="st1" d="M151.5,148.9c21.1,29.1,39.6,62.3,41.6,90.1c2.2,30.4-11.9,55.4-30.9,56.8c-19,1.4-36.6-21.3-38.8-51.7
				C121.4,216.3,134.8,180.7,151.5,148.9z"/>
		</g>
	</g>
	
		<rect x="21.1" y="166.1" transform="matrix(0.7071 -0.7071 0.7071 0.7071 -87.5646 139.4655)" class="st0" width="207" height="18.6"/>
	<polygon class="st0" points="191,107.7 212.3,31.9 230.3,37 217.7,81.7 262.7,70.2 267.3,88.3 	"/>
</g>
</svg>
