<?xml version="1.0" encoding="utf-8"?>
<!-- Generator: Adobe Illustrator 21.0.2, SVG Export Plug-In . SVG Version: 6.00 Build 0)  -->
<svg version="1.1" id="Layer_1" xmlns="http://www.w3.org/2000/svg" xmlns:xlink="http://www.w3.org/1999/xlink" x="0px" y="0px"
	 viewBox="0 0 200 300" style="enable-background:new 0 0 200 300;" xml:space="preserve">
<style type="text/css">
	.st0{fill:#2D2A6D;}
	.st1{fill:#5973E1;}
	.st2{fill:#FF7A3D;}
	.st3{fill:#FB9C6F;}
</style>
<g>
	<rect x="92" y="127.7" class="st0" width="16.1" height="159.6"/>
	<g>
		<path class="st0" d="M104,203.5c-5.8,12.6-20.7,18.2-33.3,12.5s-18.2-20.7-12.5-33.3L104,203.5z"/>
	</g>
	<g>
		<path class="st0" d="M140.7,220c5.7-12.7,0.1-27.6-12.5-33.3s-27.6-0.1-33.3,12.5L140.7,220z"/>
	</g>
	<g>
		<g>
			<g>
				<g>
					<path class="st2" d="M174.9,119.5L174.9,119.5c-4.1,10.1-15.7,15-25.8,10.9L36,84.6c-10.1-4.1-15-15.7-10.9-25.8l0,0
						c4.1-10.1,15.7-15,25.8-10.9L164,93.7C174.1,97.8,179,109.4,174.9,119.5z"/>
				</g>
				<g>
					<path class="st2" d="M130.4,14.2L130.4,14.2c10.1,4.1,15,15.7,10.9,25.8L95.4,153.1c-4.1,10.1-15.7,15-25.8,10.9l0,0
						c-10.1-4.1-15-15.7-10.9-25.8l45.9-113.2C108.7,15,120.3,10.1,130.4,14.2z"/>
				</g>
				<g>
					<path class="st1" d="M131.5,163.6L131.5,163.6c-10,4.2-21.7-0.5-26-10.5L58,40.6c-4.2-10,0.5-21.7,10.5-26l0,0
						c10-4.2,21.7,0.5,26,10.5L142,137.6C146.3,147.7,141.6,159.3,131.5,163.6z"/>
				</g>
				<g>
					<path class="st1" d="M174.5,57.6L174.5,57.6c4.2,10-0.5,21.7-10.5,26L51.5,131.2c-10,4.2-21.7-0.5-26-10.5l0,0
						c-4.2-10,0.5-21.7,10.5-26l112.4-47.6C158.5,42.8,170.2,47.6,174.5,57.6z"/>
				</g>
			</g>
		</g>
		<g>
			
				<ellipse transform="matrix(0.9209 -0.3897 0.3897 0.9209 -26.8253 46.0184)" class="st0" cx="100" cy="89.1" rx="24.4" ry="24.4"/>
		</g>
	</g>
</g>
</svg>
