<?xml version="1.0" encoding="utf-8"?>
<!-- Generator: Adobe Illustrator 21.0.2, SVG Export Plug-In . SVG Version: 6.00 Build 0)  -->
<svg version="1.1" id="Layer_1" xmlns="http://www.w3.org/2000/svg" xmlns:xlink="http://www.w3.org/1999/xlink" x="0px" y="0px"
	 viewBox="0 0 200 300" style="enable-background:new 0 0 200 300;" xml:space="preserve">
<style type="text/css">
	.st0{fill:#2D2A6D;}
	.st1{fill:#5973E1;}
	.st2{fill:#FF7A3D;}
	.st3{fill:#FB9C6F;}
</style>
<g>
	<rect x="92" y="136.5" class="st0" width="16.1" height="151"/>
	<g>
		<path class="st0" d="M101.5,208.6c-9.8,9.8-25.8,9.8-35.6,0c-9.8-9.8-9.8-25.8,0-35.6L101.5,208.6z"/>
	</g>
	<g>
		<path class="st0" d="M97.4,208.6c9.8,9.8,25.8,9.8,35.6,0c9.8-9.8,9.8-25.8,0-35.6L97.4,208.6z"/>
	</g>
	<g>
		<path class="st1" d="M163.7,151.9L163.7,151.9c-16.2,16.2-42.6,16.2-58.8,0L36.3,83.4c-16.2-16.2-16.2-42.6,0-58.8l0,0
			C52.5,8.5,79,8.5,95.2,24.6l68.5,68.5C179.8,109.3,179.8,135.8,163.7,151.9z"/>
		<path class="st1" d="M163.7,24.6L163.7,24.6c16.2,16.2,16.2,42.6,0,58.8l-68.5,68.5c-16.2,16.2-42.6,16.2-58.8,0l0,0
			c-16.2-16.2-16.2-42.6,0-58.8l68.5-68.5C121,8.5,147.5,8.5,163.7,24.6z"/>
		<g>
			
				<ellipse transform="matrix(0.7071 -0.7071 0.7071 0.7071 -33.1355 96.5679)" class="st2" cx="100" cy="88.3" rx="24.4" ry="24.4"/>
		</g>
	</g>
	<g>
		<path class="st0" d="M102.6,258.9c-9.8,9.8-25.8,9.8-35.6,0c-9.8-9.8-9.8-25.8,0-35.6L102.6,258.9z"/>
	</g>
	<g>
		<path class="st0" d="M98.5,258.9c9.8,9.8,25.8,9.8,35.6,0s9.8-25.8,0-35.6L98.5,258.9z"/>
	</g>
</g>
</svg>
