<?xml version="1.0" encoding="utf-8"?>
<!-- Generator: Adobe Illustrator 21.0.2, SVG Export Plug-In . SVG Version: 6.00 Build 0)  -->
<svg version="1.1" id="Layer_1" xmlns="http://www.w3.org/2000/svg" xmlns:xlink="http://www.w3.org/1999/xlink" x="0px" y="0px"
	 viewBox="0 0 200 300" style="enable-background:new 0 0 200 300;" xml:space="preserve">
<style type="text/css">
	.st0{fill:#2D2A6D;}
	.st1{fill:#5973E1;}
	.st2{fill:#FF7A3D;}
	.st3{fill:#FB9C6F;}
</style>
<g>
	<rect x="92" y="140.6" class="st0" width="16.1" height="146.7"/>
	<g>
		<path class="st0" d="M100,226.6c0,13.9-11.3,25.2-25.2,25.2s-25.2-11.3-25.2-25.2L100,226.6z"/>
	</g>
	<g>
		<path class="st0" d="M98.9,200.9c0,13.9,11.3,25.2,25.2,25.2s25.2-11.3,25.2-25.2H98.9z"/>
	</g>
	<g>
		<g>
			<path class="st0" d="M154.2,35.1L154.2,35.1c13.8,13.8,13.8,36.3,0,50l-58.3,58.3c-13.8,13.8-36.3,13.8-50,0l0,0
				c-13.8-13.8-13.8-36.3,0-50l58.3-58.3C117.9,21.3,140.4,21.3,154.2,35.1z"/>
		</g>
		<g>
			<path class="st2" d="M45.8,35.1L45.8,35.1c13.8-13.8,36.3-13.8,50,0l58.3,58.3c13.8,13.8,13.8,36.3,0,50l0,0
				c-13.8,13.8-36.3,13.8-50,0L45.8,85.1C32.1,71.3,32.1,48.8,45.8,35.1z"/>
		</g>
		<g>
			<path class="st3" d="M100,12.6L100,12.6c19.5,0,35.4,15.9,35.4,35.4v82.4c0,19.5-15.9,35.4-35.4,35.4h0
				c-19.5,0-35.4-15.9-35.4-35.4V48C64.6,28.6,80.5,12.6,100,12.6z"/>
		</g>
		<g>
			<path class="st3" d="M23.4,89.2L23.4,89.2c0-19.5,15.9-35.4,35.4-35.4h82.4c19.5,0,35.4,15.9,35.4,35.4v0
				c0,19.5-15.9,35.4-35.4,35.4H58.8C39.3,124.6,23.4,108.7,23.4,89.2z"/>
		</g>
		<g>
			<circle class="st0" cx="100" cy="89.2" r="24.4"/>
		</g>
	</g>
</g>
</svg>
