<?xml version="1.0" encoding="utf-8"?>
<!-- Generator: Adobe Illustrator 21.0.2, SVG Export Plug-In . SVG Version: 6.00 Build 0)  -->
<svg version="1.1" id="Layer_1" xmlns="http://www.w3.org/2000/svg" xmlns:xlink="http://www.w3.org/1999/xlink" x="0px" y="0px"
	 viewBox="0 0 200 300" style="enable-background:new 0 0 200 300;" xml:space="preserve">
<style type="text/css">
	.st0{fill:#2D2A6D;}
	.st1{fill:#5973E1;}
	.st2{fill:#FF7A3D;}
	.st3{fill:#FB9C6F;}
</style>
<g>
	<rect x="92" y="133.8" class="st0" width="16.1" height="153.1"/>
	<g>
		<path class="st0" d="M102.8,193.8c-4.8,13-19.2,19.7-32.3,15c-13-4.8-19.7-19.2-15-32.3L102.8,193.8z"/>
	</g>
	<g>
		<path class="st0" d="M96.4,192.2c4,13.3,18.1,20.8,31.4,16.8c13.3-4,20.8-18.1,16.8-31.4L96.4,192.2z"/>
	</g>
	<g>
		<g>
			<g>
				<path class="st3" d="M100,164.6L100,164.6c-7.5,0-13.6-6.1-13.6-13.6V26.7c0-7.5,6.1-13.6,13.6-13.6h0c7.5,0,13.6,6.1,13.6,13.6
					V151C113.6,158.5,107.5,164.6,100,164.6z"/>
			</g>
			<g>
				<path class="st3" d="M175.7,88.9L175.7,88.9c0,7.5-6.1,13.6-13.6,13.6H37.9c-7.5,0-13.6-6.1-13.6-13.6v0
					c0-7.5,6.1-13.6,13.6-13.6h124.2C169.6,75.2,175.7,81.4,175.7,88.9z"/>
			</g>
			<g>
				<path class="st3" d="M153.5,142.4L153.5,142.4c-5.3,5.3-14,5.3-19.3,0L46.5,54.6c-5.3-5.3-5.3-14,0-19.3l0,0
					c5.3-5.3,14-5.3,19.3,0l87.8,87.8C158.8,128.4,158.8,137.1,153.5,142.4z"/>
			</g>
			<g>
				<path class="st3" d="M46.5,142.4L46.5,142.4c-5.3-5.3-5.3-14,0-19.3l87.8-87.8c5.3-5.3,14-5.3,19.3,0l0,0c5.3,5.3,5.3,14,0,19.3
					l-87.8,87.8C60.4,147.7,51.7,147.7,46.5,142.4z"/>
			</g>
			<g>
				<path class="st3" d="M129,158.8L129,158.8c-6.9,2.9-14.9-0.5-17.8-7.4L63.6,36.7c-2.9-6.9,0.5-14.9,7.4-17.8l0,0
					c6.9-2.9,14.9,0.5,17.8,7.4L136.4,141C139.2,147.9,135.9,156,129,158.8z"/>
			</g>
			<g>
				<path class="st3" d="M71,158.8L71,158.8c-6.9-2.9-10.2-10.9-7.4-17.8l47.5-114.8c2.9-6.9,10.9-10.2,17.8-7.4l0,0
					c6.9,2.9,10.2,10.9,7.4,17.8L88.8,151.4C85.9,158.4,77.9,161.7,71,158.8z"/>
			</g>
			<g>
				<path class="st3" d="M170,117.8L170,117.8c-2.9,6.9-10.9,10.2-17.8,7.4L37.4,77.7c-6.9-2.9-10.2-10.9-7.4-17.8l0,0
					c2.9-6.9,10.9-10.2,17.8-7.4L162.6,100C169.5,102.9,172.8,110.9,170,117.8z"/>
			</g>
			<g>
				<path class="st3" d="M170,59.9L170,59.9c2.9,6.9-0.5,14.9-7.4,17.8L47.8,125.2c-6.9,2.9-14.9-0.5-17.8-7.4l0,0
					c-2.9-6.9,0.5-14.9,7.4-17.8l114.8-47.5C159.1,49.6,167.1,53,170,59.9z"/>
			</g>
		</g>
		<g>
			
				<ellipse transform="matrix(0.7071 -0.7071 0.7071 0.7071 -33.5403 96.7355)" class="st0" cx="100" cy="88.9" rx="24.8" ry="24.8"/>
		</g>
		<g>
			<g>
				<path class="st1" d="M100,146.6L100,146.6c-5.7,0-10.4-4.7-10.4-10.4V41.5c0-5.7,4.7-10.4,10.4-10.4h0c5.7,0,10.4,4.7,10.4,10.4
					v94.7C110.4,141.9,105.7,146.6,100,146.6z"/>
			</g>
			<g>
				<path class="st1" d="M157.8,88.9L157.8,88.9c0,5.7-4.7,10.4-10.4,10.4H52.6c-5.7,0-10.4-4.7-10.4-10.4v0
					c0-5.7,4.7-10.4,10.4-10.4h94.7C153.1,78.5,157.8,83.1,157.8,88.9z"/>
			</g>
			<g>
				<path class="st1" d="M140.8,129.7L140.8,129.7c-4,4-10.6,4-14.7,0l-67-67c-4-4-4-10.6,0-14.7l0,0c4-4,10.6-4,14.7,0l67,67
					C144.9,119,144.9,125.7,140.8,129.7z"/>
			</g>
			<g>
				<path class="st1" d="M59.2,129.7L59.2,129.7c-4-4-4-10.6,0-14.7l67-67c4-4,10.6-4,14.7,0l0,0c4,4,4,10.6,0,14.7l-67,67
					C69.8,133.7,63.2,133.7,59.2,129.7z"/>
			</g>
			<g>
				<path class="st1" d="M122.1,142.2L122.1,142.2c-5.3,2.2-11.4-0.3-13.6-5.6L72.3,49.1c-2.2-5.3,0.3-11.4,5.6-13.6l0,0
					c5.3-2.2,11.4,0.3,13.6,5.6l36.3,87.5C129.9,133.9,127.4,140,122.1,142.2z"/>
			</g>
			<g>
				<path class="st1" d="M77.9,142.2L77.9,142.2c-5.3-2.2-7.8-8.3-5.6-13.6l36.3-87.5c2.2-5.3,8.3-7.8,13.6-5.6l0,0
					c5.3,2.2,7.8,8.3,5.6,13.6l-36.3,87.5C89.3,141.9,83.2,144.4,77.9,142.2z"/>
			</g>
			<g>
				<path class="st1" d="M153.4,111L153.4,111c-2.2,5.3-8.3,7.8-13.6,5.6L52.3,80.3c-5.3-2.2-7.8-8.3-5.6-13.6l0,0
					c2.2-5.3,8.3-7.8,13.6-5.6l87.5,36.3C153,99.6,155.5,105.7,153.4,111z"/>
			</g>
			<g>
				<path class="st1" d="M153.4,66.8L153.4,66.8c2.2,5.3-0.3,11.4-5.6,13.6l-87.5,36.3c-5.3,2.2-11.4-0.3-13.6-5.6l0,0
					c-2.2-5.3,0.3-11.4,5.6-13.6l87.5-36.3C145.1,58.9,151.2,61.5,153.4,66.8z"/>
			</g>
		</g>
		<g>
			
				<ellipse transform="matrix(0.7071 -0.7071 0.7071 0.7071 -33.5403 96.7355)" class="st2" cx="100" cy="88.9" rx="24.4" ry="24.4"/>
		</g>
	</g>
</g>
</svg>
