<?xml version="1.0" encoding="utf-8"?>
<!-- Generator: Adobe Illustrator 21.0.2, SVG Export Plug-In . SVG Version: 6.00 Build 0)  -->
<svg version="1.1" id="Layer_1" xmlns="http://www.w3.org/2000/svg" xmlns:xlink="http://www.w3.org/1999/xlink" x="0px" y="0px"
	 viewBox="0 0 300 300" style="enable-background:new 0 0 300 300;" xml:space="preserve">
<style type="text/css">
	.st0{fill:#2D2A6D;}
	.st1{fill:#FF7A3D;}
	.st2{fill:#5973E1;}
	.st3{fill:#FB9C6F;}
</style>
<g>
	<g>
		<path class="st2" d="M269.5,134.7c13.5,15.5,24.9,32.9,24.9,47c0,15.4-11.3,27.5-24.9,27.5c-13.6,0-24.9-12.1-24.9-27.5
			C244.6,167.6,255.9,150.1,269.5,134.7z"/>
	</g>
	<g>
		<path class="st0" d="M188.9,170.9c13.5,15.5,24.9,32.9,24.9,47c0,15.4-11.3,27.5-24.9,27.5c-13.6,0-24.9-12.1-24.9-27.5
			C164,203.8,175.4,186.4,188.9,170.9z"/>
	</g>
	<g>
		<path class="st2" d="M97.7,207.1c13.5,15.5,24.9,32.9,24.9,47c0,15.4-11.3,27.5-24.9,27.5c-13.6,0-24.9-12.1-24.9-27.5
			C72.8,240.1,84.2,222.6,97.7,207.1z"/>
	</g>
	<g>
		<path class="st0" d="M224.5,18.3C241.1,37.3,255,58.6,255,75.8c0,18.9-13.9,33.7-30.5,33.7c-16.6,0-30.5-14.8-30.5-33.7
			C194.1,58.6,208,37.3,224.5,18.3z"/>
	</g>
	<g>
		<path class="st2" d="M130.3,62.7c16.6,18.9,30.5,40.3,30.5,57.5c0,18.9-13.9,33.7-30.5,33.7c-16.6,0-30.5-14.8-30.5-33.7
			C99.8,102.9,113.7,81.6,130.3,62.7z"/>
	</g>
	<g>
		<path class="st0" d="M36.1,107c16.6,18.9,30.5,40.3,30.5,57.5c0,18.9-13.9,33.7-30.5,33.7c-16.6,0-30.5-14.8-30.5-33.7
			C5.6,147.3,19.5,125.9,36.1,107z"/>
	</g>
</g>
</svg>
